<svg width="62" height="62" viewBox="0 0 62 62" fill="none" xmlns="http://www.w3.org/2000/svg">
<g clip-path="url(#clip0_11_256)">
<path d="M56.2998 -0.5V-0.478516C57.8939 -0.35928 59.4 0.323806 60.5381 1.46191C61.6762 2.60004 62.3603 4.10608 62.4795 5.7002H62.5V21.167H57.3662V6.2002L57.3594 6.04492C57.3237 5.68635 57.1652 5.34883 56.9082 5.0918C56.6512 4.83476 56.3137 4.67627 55.9551 4.64062L55.7998 4.63379H6.2002C5.78469 4.63379 5.3856 4.79799 5.0918 5.0918C4.83476 5.34883 4.67627 5.68635 4.64062 6.04492L4.63379 6.2002V55.7998L4.64062 55.9551C4.67627 56.3137 4.83476 56.6512 5.0918 56.9082C5.34883 57.1652 5.68635 57.3237 6.04492 57.3594L6.2002 57.3662H33.5664V62.5H5.7002V62.4785C4.1061 62.3593 2.60002 61.6762 1.46191 60.5381C0.323789 59.4 -0.360273 57.8939 -0.479492 56.2998H-0.5V5.7002H-0.479492C-0.360272 4.10608 0.323789 2.60004 1.46191 1.46191C2.60002 0.323806 4.1061 -0.35928 5.7002 -0.478516V-0.5H56.2998ZM48.0332 20.167V20.1758C51.8211 20.3022 55.4275 21.862 58.1162 24.5508C60.8049 27.2396 62.3638 30.8458 62.4902 34.6338H62.5V35.6338H62.4902C62.3676 39.3025 60.9013 42.8007 58.3662 45.46V60.4336H58.3164C58.2569 60.7329 58.1453 61.0213 57.9834 61.2832C57.7328 61.6885 57.3744 62.0164 56.9482 62.2295C56.5219 62.4427 56.0441 62.5321 55.5693 62.4893C55.2627 62.4616 54.9656 62.3781 54.6904 62.2461L54.6602 62.2871L54.2598 61.9863L47.5332 56.9414L41.2061 61.6855L41.207 61.6865L40.8066 61.9863L40.4062 62.2871L40.375 62.2461C40.1001 62.3779 39.8034 62.4616 39.4971 62.4893C39.0225 62.532 38.5453 62.4425 38.1191 62.2295C37.6928 62.0163 37.3336 61.6877 37.083 61.2822C36.9213 61.0204 36.8095 60.7328 36.75 60.4336H36.7002V45.46C34.1651 42.8007 32.6988 39.3024 32.5762 35.6338H32.5664V34.6338H32.5762C32.7026 30.8459 34.2615 27.2396 36.9502 24.5508C39.6389 21.8621 43.2453 20.3023 47.0332 20.1758V20.167H48.0332ZM53.2334 48.9717C51.5937 49.6471 49.834 50.0307 48.0332 50.0908V50.0996H47.0332V50.0908C45.2324 50.0307 43.4727 49.6471 41.833 48.9717V54.7998L45.9932 51.6797L46.3936 51.3799L46.4238 51.4199C46.7683 51.2547 47.1469 51.167 47.5332 51.167C47.9191 51.167 48.2973 51.255 48.6416 51.4199L48.6729 51.3799L49.0732 51.6797L53.2334 54.7998V48.9717ZM47.5332 25.2998C44.9254 25.2998 42.4241 26.3357 40.5801 28.1797C38.736 30.0238 37.7002 32.5258 37.7002 35.1338L37.7119 35.6211C37.8325 38.0515 38.8513 40.3581 40.5801 42.0869C40.8726 42.3794 41.1834 42.6494 41.5068 42.9004H41.833V43.1416C43.4872 44.3191 45.476 44.9668 47.5332 44.9668C49.5902 44.9668 51.5793 44.3198 53.2334 43.1426V42.9004H53.5596C53.883 42.6494 54.1938 42.3794 54.4863 42.0869C56.2151 40.3581 57.2339 38.0515 57.3545 35.6211L57.3662 35.1338L57.3545 34.6455C57.2339 32.2152 56.2151 29.9085 54.4863 28.1797C52.6422 26.3358 50.141 25.2998 47.5332 25.2998ZM25.2998 28.4336V33.5664H11.9004V28.4336H25.2998ZM33.5664 16.0332V21.167H11.9004V16.0332H33.5664Z" fill="#4B2A63" stroke="#4B2A63"/>
</g>
<defs>
<clipPath id="clip0_11_256">
<rect width="62" height="62" fill="white"/>
</clipPath>
</defs>
</svg>
