<svg width="57" height="56" viewBox="0 0 57 56" fill="none" xmlns="http://www.w3.org/2000/svg">
<rect width="57" height="56" fill="white" fill-opacity="0.69"/>
<path d="M28.4976 17.2129C25.585 17.2129 22.7917 18.3496 20.7322 20.373C18.6727 22.3964 17.5156 25.1407 17.5156 28.0022C17.5156 30.8637 18.6727 33.608 20.7322 35.6314C22.7917 37.6548 25.585 38.7916 28.4976 38.7916C31.4102 38.7916 34.2036 37.6548 36.2631 35.6314C38.3226 33.608 39.4796 30.8637 39.4796 28.0022C39.4796 25.1407 38.3226 22.3964 36.2631 20.373C34.2036 18.3496 31.4102 17.2129 28.4976 17.2129ZM28.4976 35.0092C26.6054 35.0092 24.7908 34.2707 23.4528 32.9562C22.1148 31.6417 21.3631 29.8589 21.3631 27.9999C21.3631 26.1409 22.1148 24.358 23.4528 23.0435C24.7908 21.729 26.6054 20.9906 28.4976 20.9906C30.3898 20.9906 32.2045 21.729 33.5425 23.0435C34.8805 24.358 35.6321 26.1409 35.6321 27.9999C35.6321 29.8589 34.8805 31.6417 33.5425 32.9562C32.2045 34.2707 30.3898 35.0092 28.4976 35.0092Z" fill="black"/>
<path d="M39.9143 19.3314C41.3282 19.3314 42.4745 18.2053 42.4745 16.8161C42.4745 15.4269 41.3282 14.3008 39.9143 14.3008C38.5003 14.3008 37.354 15.4269 37.354 16.8161C37.354 18.2053 38.5003 19.3314 39.9143 19.3314Z" fill="black"/>
<path d="M48.766 14.2591C48.2162 12.8641 47.376 11.5974 46.2992 10.5399C45.2224 9.48233 43.9327 8.65735 42.5126 8.11772C40.8509 7.50489 39.0954 7.17351 37.3209 7.13772C35.0338 7.03972 34.3094 7.01172 28.5096 7.01172C22.7099 7.01172 21.9665 7.01172 19.6984 7.13772C17.9252 7.17168 16.1709 7.50312 14.5114 8.11772C13.091 8.65672 11.8009 9.48148 10.7241 10.5391C9.64715 11.5967 8.80718 12.8638 8.25801 14.2591C7.63411 15.8915 7.29759 17.6163 7.26288 19.3597C7.16076 21.6044 7.12988 22.3161 7.12988 28.0164C7.12988 33.7144 7.12988 34.4401 7.26288 36.6731C7.29851 38.4184 7.63338 40.1404 8.25801 41.7761C8.80872 43.1708 9.64951 44.4374 10.7267 45.4949C11.8038 46.5523 13.0937 47.3774 14.5138 47.9174C16.1702 48.5548 17.9251 48.9099 19.7031 48.9674C21.9903 49.0654 22.7146 49.0957 28.5144 49.0957C34.3141 49.0957 35.0575 49.0957 37.3256 48.9674C39.1 48.9319 40.8554 48.6014 42.5174 47.9897C43.9371 47.4488 45.2264 46.6231 46.3031 45.5653C47.3798 44.5075 48.2202 43.2408 48.7708 41.8461C49.3954 40.2127 49.7303 38.4907 49.7659 36.7454C49.868 34.5007 49.8989 33.7891 49.8989 28.0887C49.8989 22.3884 49.8989 21.6651 49.7659 19.4321C49.7382 17.664 49.4 15.914 48.766 14.2591ZM45.8733 36.5004C45.8579 37.8451 45.6081 39.1773 45.1346 40.4391C44.778 41.3464 44.2319 42.1704 43.5317 42.858C42.8314 43.5456 41.9924 44.0815 41.0686 44.4314C39.7985 44.8944 38.457 45.1399 37.1024 45.1571C34.8461 45.2597 34.2096 45.2854 28.4241 45.2854C22.6339 45.2854 22.0425 45.2854 19.7435 45.1571C18.3896 45.1408 17.0487 44.8953 15.7796 44.4314C14.8526 44.0837 14.0103 43.5487 13.307 42.861C12.6037 42.1733 12.0552 41.3482 11.697 40.4391C11.2302 39.1908 10.9805 37.8743 10.9584 36.5447C10.8563 34.3281 10.8325 33.7027 10.8325 28.0187C10.8325 22.3324 10.8325 21.7514 10.9584 19.4904C10.9737 18.1464 11.2236 16.815 11.697 15.5541C12.4214 13.7131 13.9058 12.2641 15.7796 11.5594C17.0493 11.0977 18.3898 10.8523 19.7435 10.8337C22.0021 10.7334 22.6363 10.7054 28.4241 10.7054C34.212 10.7054 34.8058 10.7054 37.1024 10.8337C38.4571 10.8497 39.7989 11.0952 41.0686 11.5594C41.9923 11.91 42.8312 12.4465 43.5314 13.1345C44.2317 13.8224 44.7777 14.6466 45.1346 15.5541C45.6014 16.8023 45.8511 18.1188 45.8733 19.4484C45.9754 21.6674 46.0015 22.2904 46.0015 27.9767C46.0015 33.6607 46.0015 34.2721 45.8994 36.5027H45.8733V36.5004Z" fill="black"/>
</svg>
