<svg width="48" height="48" viewBox="0 0 48 48" fill="none" xmlns="http://www.w3.org/2000/svg">
<g clip-path="url(#clip0_11_333)">
<rect width="48" height="48" fill="white" fill-opacity="0.69"/>
<path d="M9.41137 0.0117188C4.24096 0.0117188 0.00927734 4.2433 0.00927734 9.41381V38.5902C0.00927734 43.7606 4.24086 47.9907 9.41137 47.9907H38.5877C43.7582 47.9907 47.9883 43.7606 47.9883 38.5902V9.41381C47.9883 4.2434 43.7582 0.0117188 38.5877 0.0117188H9.41137ZM11.7761 7.92922C14.2552 7.92922 15.7823 9.55671 15.8294 11.696C15.8294 13.7881 14.2552 15.4613 11.7282 15.4613H11.6817C9.24976 15.4613 7.6779 13.7882 7.6779 11.696C7.6779 9.55676 9.29733 7.92922 11.7761 7.92922H11.7761ZM33.14 17.9281C37.9078 17.9281 41.4819 21.0444 41.4819 27.741V40.2426H34.2362V28.5792C34.2362 25.6483 33.1875 23.6487 30.5653 23.6487C28.5635 23.6487 27.3703 24.9965 26.8465 26.2984C26.6551 26.7642 26.608 27.4148 26.608 28.0664V40.2426H19.3623C19.3623 40.2426 19.4574 20.4852 19.3623 18.4394H26.6095V21.5269C27.5724 20.0413 29.2948 17.9281 33.14 17.9281V17.9281ZM8.10529 18.441H15.351V40.2427H8.10529V18.441Z" fill="black"/>
</g>
<defs>
<clipPath id="clip0_11_333">
<rect width="48" height="48" fill="white"/>
</clipPath>
</defs>
</svg>
