<svg width="49" height="48" viewBox="0 0 49 48" fill="none" xmlns="http://www.w3.org/2000/svg">
<rect width="49" height="48" fill="white" fill-opacity="0.69"/>
<path d="M48.2712 9.87415C46.5664 10.6142 44.735 11.1142 42.8097 11.3402C44.7963 10.1757 46.2825 8.34309 46.991 6.18415C45.1246 7.27013 43.082 8.03454 40.9518 8.44415C39.5193 6.94588 37.622 5.95281 35.5543 5.6191C33.4866 5.2854 31.3643 5.62974 29.5169 6.59866C27.6695 7.56758 26.2003 9.10688 25.3374 10.9776C24.4746 12.8482 24.2663 14.9457 24.745 16.9442C20.9632 16.7581 17.2636 15.7953 13.8863 14.118C10.509 12.4407 7.52939 10.0865 5.14096 7.20815C4.32429 8.58815 3.85471 10.1882 3.85471 11.8922C3.8538 13.4261 4.23943 14.9366 4.97738 16.2896C5.71533 17.6426 6.78279 18.7962 8.08504 19.6482C6.57478 19.6011 5.09783 19.2013 3.77713 18.4822V18.6022C3.77698 20.7536 4.53669 22.8389 5.92738 24.5041C7.31806 26.1694 9.25404 27.312 11.4068 27.7382C10.0058 28.1096 8.53694 28.1643 7.11117 27.8982C7.71856 29.7494 8.9017 31.3682 10.495 32.528C12.0882 33.6878 14.0118 34.3305 15.9965 34.3662C12.6274 36.957 8.46661 38.3623 4.18342 38.3562C3.4247 38.3564 2.66662 38.313 1.91309 38.2262C6.26077 40.9645 11.3218 42.4178 16.4906 42.4122C33.9877 42.4122 43.5529 28.2162 43.5529 15.9042C43.5529 15.5042 43.5427 15.1002 43.5243 14.7002C45.3848 13.3821 46.9909 11.7499 48.2671 9.88015L48.2712 9.87415Z" fill="black"/>
</svg>
